# xmcd
# 
# Track frame offsets:
#     150
#     11641
#     27143
#     37436
#     49046
# 
# Disc length: 857
# 
# Revision: 0
# Processed by: cddbd v1.5.2PL0 Copyright (c) Steve Scherf et al.
# Submitted via: BonkEnc v1.0.15
# 
DISCID=3b035705
DTITLE=The Bastard Suns - a band for all seasons, volume 3: spring
DYEAR=2011
DGENRE=Punk
TTITLE0=Rudy Went Crazy
TTITLE1=Lobrow Hijinks
TTITLE2=Onward and Upward
TTITLE3=I'm Failing
TTITLE4=Maggie May
EXTD=Never say die!
EXTT0=
EXTT1=
EXTT2=
EXTT3=
EXTT4=
PLAYORDER=
